# xmcd CD database file
#
# Track frame offsets:
#	150
#	18568
#	36968
#	51895
#	63675
#	81233
#	99650
#	114363
#	135340
#	150490
#	166145
#	184885
#
# Disc length: 2670 seconds
#
# Revision: 0
# Processed by: cddbd v1.5PL3 Copyright (c) Steve Scherf et al.
# Submitted via: CDex 1.51
#
DISCID=990a6c0c
DTITLE=Various Artist - スケバン刑事??少女忍法帖伝奇?
DYEAR=1900
DGENRE=Other
TTITLE0=赤き星輝くとき?陰星のテーマ/暗闇指令?
TTITLE1=九州一の大スケバン?唯のテーマ/雛人形の秘密?
TTITLE2=シャドウ・ハンター（歌）大西結花
TTITLE3=スケバン姉妹ー結花と由真?悲しみは突然に…?
TTITLE4=三代目スケバン刑事誕生?般若のテーマ?
TTITLE5=ハートのIgnition（歌）福永恵規
TTITLE6=動き始めた陰?謎の美少女・翔/迫りくる陰?
TTITLE7=宿命の娘たち?走れ三姉妹！/戦いは果てしなく/宿命の娘たち?
TTITLE8=ジレンマ（歌）中村由真
TTITLE9=ある時は乙女のままで?由真のテーマ/結花のテーマ?
TTITLE10=新たなる決意?対決のとき/戦え唯！?
TTITLE11=Star（歌）浅香唯
EXTD=
EXTT0=
EXTT1=
EXTT2=
EXTT3=
EXTT4=
EXTT5=
EXTT6=
EXTT7=
EXTT8=
EXTT9=
EXTT10=
EXTT11=
PLAYORDER=
